<mxfile host="app.diagrams.net" modified="2023-11-28T22:25:20.022Z" agent="Mozilla/5.0 (Windows NT 10.0; Win64; x64; rv:120.0) Gecko/20100101 Firefox/120.0" etag="qH06g9ad1O-YPGGL9RfM" version="22.1.4" type="github">
  <diagram name="Page-1" id="135Mz8fbIhc5f4Y4-zg9">
    <mxGraphModel dx="1434" dy="746" grid="1" gridSize="10" guides="1" tooltips="1" connect="1" arrows="1" fold="1" page="1" pageScale="1" pageWidth="827" pageHeight="1169" math="0" shadow="0">
      <root>
        <mxCell id="0" />
        <mxCell id="1" parent="0" />
        <mxCell id="hziP3jtluFmY-buEPrSC-1" value="&lt;b&gt;&lt;font style=&quot;font-size: 14px;&quot;&gt;Patient&lt;/font&gt;&lt;/b&gt;" style="whiteSpace=wrap;html=1;align=center;fillColor=#dae8fc;strokeColor=#6c8ebf;" parent="1" vertex="1">
          <mxGeometry x="626" y="120" width="100" height="40" as="geometry" />
        </mxCell>
        <mxCell id="hziP3jtluFmY-buEPrSC-4" style="edgeStyle=none;rounded=0;orthogonalLoop=1;jettySize=auto;html=1;exitX=0.5;exitY=1;exitDx=0;exitDy=0;entryX=0.5;entryY=0;entryDx=0;entryDy=0;strokeColor=none;" parent="1" source="hziP3jtluFmY-buEPrSC-3" target="hziP3jtluFmY-buEPrSC-1" edge="1">
          <mxGeometry relative="1" as="geometry" />
        </mxCell>
        <mxCell id="hziP3jtluFmY-buEPrSC-3" value="&lt;div&gt;&lt;font style=&quot;font-size: 14px;&quot;&gt;P_ID&lt;/font&gt;&lt;/div&gt;" style="ellipse;whiteSpace=wrap;html=1;align=center;fontStyle=4;" parent="1" vertex="1">
          <mxGeometry x="735" y="10" width="70" height="30" as="geometry" />
        </mxCell>
        <mxCell id="hziP3jtluFmY-buEPrSC-6" value="" style="edgeStyle=none;orthogonalLoop=1;jettySize=auto;html=1;rounded=0;entryX=0.5;entryY=1;entryDx=0;entryDy=0;exitX=1;exitY=0.5;exitDx=0;exitDy=0;endArrow=none;endFill=0;" parent="1" source="hziP3jtluFmY-buEPrSC-1" target="hziP3jtluFmY-buEPrSC-3" edge="1">
          <mxGeometry width="80" relative="1" as="geometry">
            <mxPoint x="666" y="360" as="sourcePoint" />
            <mxPoint x="746" y="360" as="targetPoint" />
            <Array as="points" />
          </mxGeometry>
        </mxCell>
        <mxCell id="hziP3jtluFmY-buEPrSC-91" style="edgeStyle=none;rounded=0;orthogonalLoop=1;jettySize=auto;html=1;exitX=0.5;exitY=1;exitDx=0;exitDy=0;entryX=1;entryY=0.5;entryDx=0;entryDy=0;endArrow=none;endFill=0;" parent="1" source="hziP3jtluFmY-buEPrSC-8" target="hziP3jtluFmY-buEPrSC-1" edge="1">
          <mxGeometry relative="1" as="geometry" />
        </mxCell>
        <mxCell id="hziP3jtluFmY-buEPrSC-8" value="&lt;font style=&quot;font-size: 14px;&quot;&gt;First Name&lt;/font&gt;" style="ellipse;whiteSpace=wrap;html=1;align=center;" parent="1" vertex="1">
          <mxGeometry x="812.5" y="20" width="77.5" height="30" as="geometry" />
        </mxCell>
        <mxCell id="hziP3jtluFmY-buEPrSC-16" style="edgeStyle=none;rounded=0;orthogonalLoop=1;jettySize=auto;html=1;exitX=0.5;exitY=1;exitDx=0;exitDy=0;entryX=0.5;entryY=0;entryDx=0;entryDy=0;endArrow=none;endFill=0;" parent="1" source="hziP3jtluFmY-buEPrSC-9" target="hziP3jtluFmY-buEPrSC-13" edge="1">
          <mxGeometry relative="1" as="geometry" />
        </mxCell>
        <mxCell id="hziP3jtluFmY-buEPrSC-35" style="edgeStyle=none;rounded=0;orthogonalLoop=1;jettySize=auto;html=1;exitX=1;exitY=0.5;exitDx=0;exitDy=0;endArrow=none;endFill=0;entryX=0;entryY=0.5;entryDx=0;entryDy=0;" parent="1" source="hziP3jtluFmY-buEPrSC-9" target="hziP3jtluFmY-buEPrSC-34" edge="1">
          <mxGeometry relative="1" as="geometry">
            <mxPoint x="780" y="460" as="targetPoint" />
          </mxGeometry>
        </mxCell>
        <mxCell id="GRBQYt7fKZuuvifM5nAX-3" style="edgeStyle=none;rounded=0;orthogonalLoop=1;jettySize=auto;html=1;exitX=1;exitY=1;exitDx=0;exitDy=0;entryX=0;entryY=0;entryDx=0;entryDy=0;endArrow=none;endFill=0;" edge="1" parent="1" source="hziP3jtluFmY-buEPrSC-9" target="hziP3jtluFmY-buEPrSC-126">
          <mxGeometry relative="1" as="geometry" />
        </mxCell>
        <mxCell id="hziP3jtluFmY-buEPrSC-9" value="&lt;b&gt;&lt;font style=&quot;font-size: 14px;&quot;&gt;Medical staff&lt;/font&gt;&lt;/b&gt;" style="whiteSpace=wrap;html=1;align=center;fillColor=#dae8fc;strokeColor=#6c8ebf;" parent="1" vertex="1">
          <mxGeometry x="624.25" y="440" width="100" height="40" as="geometry" />
        </mxCell>
        <mxCell id="hziP3jtluFmY-buEPrSC-10" value="&lt;b&gt;&lt;font style=&quot;font-size: 14px;&quot;&gt;Hospital&lt;/font&gt;&lt;/b&gt;" style="whiteSpace=wrap;html=1;align=center;fillColor=#dae8fc;strokeColor=#6c8ebf;" parent="1" vertex="1">
          <mxGeometry x="804.88" y="275" width="100" height="40" as="geometry" />
        </mxCell>
        <mxCell id="hziP3jtluFmY-buEPrSC-18" style="rounded=0;orthogonalLoop=1;jettySize=auto;html=1;exitX=0.5;exitY=0;exitDx=0;exitDy=0;entryX=0;entryY=1;entryDx=0;entryDy=0;endArrow=none;endFill=0;" parent="1" source="hziP3jtluFmY-buEPrSC-11" target="hziP3jtluFmY-buEPrSC-13" edge="1">
          <mxGeometry relative="1" as="geometry" />
        </mxCell>
        <mxCell id="0w7jtVphP_o-tZDUtHK--6" style="edgeStyle=none;rounded=0;orthogonalLoop=1;jettySize=auto;html=1;exitX=0.5;exitY=1;exitDx=0;exitDy=0;entryX=0.5;entryY=0;entryDx=0;entryDy=0;endArrow=none;endFill=0;" parent="1" source="0w7jtVphP_o-tZDUtHK--7" target="0w7jtVphP_o-tZDUtHK--5" edge="1">
          <mxGeometry relative="1" as="geometry" />
        </mxCell>
        <mxCell id="hziP3jtluFmY-buEPrSC-11" value="&lt;b&gt;&lt;font style=&quot;font-size: 14px;&quot;&gt;Doctor&lt;/font&gt;&lt;/b&gt;" style="whiteSpace=wrap;html=1;align=center;fillColor=#dae8fc;strokeColor=#6c8ebf;" parent="1" vertex="1">
          <mxGeometry x="506.13" y="710" width="100" height="40" as="geometry" />
        </mxCell>
        <mxCell id="hziP3jtluFmY-buEPrSC-19" style="edgeStyle=none;rounded=0;orthogonalLoop=1;jettySize=auto;html=1;exitX=0.5;exitY=0;exitDx=0;exitDy=0;entryX=1;entryY=1;entryDx=0;entryDy=0;endArrow=none;endFill=0;" parent="1" source="hziP3jtluFmY-buEPrSC-12" target="hziP3jtluFmY-buEPrSC-13" edge="1">
          <mxGeometry relative="1" as="geometry" />
        </mxCell>
        <mxCell id="hziP3jtluFmY-buEPrSC-106" style="edgeStyle=none;rounded=0;orthogonalLoop=1;jettySize=auto;html=1;exitX=1;exitY=0;exitDx=0;exitDy=0;entryX=0;entryY=1;entryDx=0;entryDy=0;endArrow=none;endFill=0;" parent="1" source="hziP3jtluFmY-buEPrSC-12" target="hziP3jtluFmY-buEPrSC-105" edge="1">
          <mxGeometry relative="1" as="geometry" />
        </mxCell>
        <mxCell id="hziP3jtluFmY-buEPrSC-12" value="&lt;b&gt;&lt;font style=&quot;font-size: 14px;&quot;&gt;Assistant&lt;/font&gt;&lt;/b&gt;" style="whiteSpace=wrap;html=1;align=center;fillColor=#dae8fc;strokeColor=#6c8ebf;" parent="1" vertex="1">
          <mxGeometry x="715.38" y="710" width="100" height="40" as="geometry" />
        </mxCell>
        <mxCell id="hziP3jtluFmY-buEPrSC-13" value="&lt;font style=&quot;font-size: 14px;&quot;&gt;&lt;b&gt;d&lt;/b&gt;&lt;/font&gt;" style="ellipse;whiteSpace=wrap;html=1;aspect=fixed;" parent="1" vertex="1">
          <mxGeometry x="656" y="610" width="40" height="40" as="geometry" />
        </mxCell>
        <mxCell id="hziP3jtluFmY-buEPrSC-20" value="&lt;font style=&quot;font-size: 14px;&quot;&gt;&lt;b&gt;t&lt;/b&gt;&lt;/font&gt;" style="text;html=1;align=center;verticalAlign=middle;resizable=0;points=[];autosize=1;strokeColor=none;fillColor=none;" parent="1" vertex="1">
          <mxGeometry x="677" y="570" width="30" height="30" as="geometry" />
        </mxCell>
        <mxCell id="hziP3jtluFmY-buEPrSC-21" value="" style="shape=dataStorage;whiteSpace=wrap;html=1;fixedSize=1;rotation=-30;direction=east;" parent="1" vertex="1">
          <mxGeometry x="636" y="640" width="10" height="40" as="geometry" />
        </mxCell>
        <mxCell id="hziP3jtluFmY-buEPrSC-31" value="" style="shape=dataStorage;whiteSpace=wrap;html=1;fixedSize=1;rotation=-240;direction=south;" parent="1" vertex="1">
          <mxGeometry x="696" y="655" width="40" height="10" as="geometry" />
        </mxCell>
        <mxCell id="hziP3jtluFmY-buEPrSC-32" value="&lt;font style=&quot;font-size: 14px;&quot;&gt;examined&lt;/font&gt;" style="shape=rhombus;perimeter=rhombusPerimeter;whiteSpace=wrap;html=1;align=center;" parent="1" vertex="1">
          <mxGeometry x="629.25" y="270" width="90" height="50" as="geometry" />
        </mxCell>
        <mxCell id="hziP3jtluFmY-buEPrSC-34" value="&lt;font style=&quot;font-size: 14px;&quot;&gt;affiliated&lt;/font&gt;" style="shape=rhombus;perimeter=rhombusPerimeter;whiteSpace=wrap;html=1;align=center;" parent="1" vertex="1">
          <mxGeometry x="809.88" y="433" width="90" height="50" as="geometry" />
        </mxCell>
        <mxCell id="hziP3jtluFmY-buEPrSC-36" style="edgeStyle=none;rounded=0;orthogonalLoop=1;jettySize=auto;html=1;exitX=0.5;exitY=0;exitDx=0;exitDy=0;endArrow=none;endFill=0;entryX=0.5;entryY=1;entryDx=0;entryDy=0;" parent="1" source="hziP3jtluFmY-buEPrSC-34" target="hziP3jtluFmY-buEPrSC-10" edge="1">
          <mxGeometry relative="1" as="geometry">
            <mxPoint x="814" y="349.66666666666674" as="targetPoint" />
            <mxPoint x="644" y="350" as="sourcePoint" />
          </mxGeometry>
        </mxCell>
        <mxCell id="hziP3jtluFmY-buEPrSC-38" style="edgeStyle=none;rounded=0;orthogonalLoop=1;jettySize=auto;html=1;endArrow=none;endFill=0;entryX=0;entryY=0.5;entryDx=0;entryDy=0;exitX=1;exitY=0.5;exitDx=0;exitDy=0;" parent="1" source="hziP3jtluFmY-buEPrSC-32" target="hziP3jtluFmY-buEPrSC-10" edge="1">
          <mxGeometry relative="1" as="geometry">
            <mxPoint x="880" y="140" as="targetPoint" />
            <mxPoint x="740" y="260" as="sourcePoint" />
          </mxGeometry>
        </mxCell>
        <mxCell id="hziP3jtluFmY-buEPrSC-39" style="edgeStyle=none;rounded=0;orthogonalLoop=1;jettySize=auto;html=1;exitX=0.5;exitY=0;exitDx=0;exitDy=0;endArrow=none;endFill=0;entryX=0.5;entryY=1;entryDx=0;entryDy=0;" parent="1" source="hziP3jtluFmY-buEPrSC-32" target="hziP3jtluFmY-buEPrSC-1" edge="1">
          <mxGeometry relative="1" as="geometry">
            <mxPoint x="930" y="379.66666666666674" as="targetPoint" />
            <mxPoint x="760" y="380" as="sourcePoint" />
          </mxGeometry>
        </mxCell>
        <mxCell id="hziP3jtluFmY-buEPrSC-40" style="edgeStyle=none;rounded=0;orthogonalLoop=1;jettySize=auto;html=1;exitX=0.5;exitY=1;exitDx=0;exitDy=0;endArrow=none;endFill=0;entryX=0.5;entryY=0;entryDx=0;entryDy=0;" parent="1" source="hziP3jtluFmY-buEPrSC-32" target="hziP3jtluFmY-buEPrSC-9" edge="1">
          <mxGeometry relative="1" as="geometry">
            <mxPoint x="940" y="389.66666666666674" as="targetPoint" />
            <mxPoint x="770" y="390" as="sourcePoint" />
          </mxGeometry>
        </mxCell>
        <mxCell id="hziP3jtluFmY-buEPrSC-46" style="edgeStyle=none;rounded=0;orthogonalLoop=1;jettySize=auto;html=1;exitX=0.5;exitY=1;exitDx=0;exitDy=0;entryX=0.5;entryY=0;entryDx=0;entryDy=0;endArrow=none;endFill=0;" parent="1" source="hziP3jtluFmY-buEPrSC-41" target="hziP3jtluFmY-buEPrSC-44" edge="1">
          <mxGeometry relative="1" as="geometry" />
        </mxCell>
        <mxCell id="hziP3jtluFmY-buEPrSC-41" value="&lt;b&gt;&lt;font style=&quot;font-size: 14px;&quot;&gt;Medical record&lt;/font&gt;&lt;/b&gt;" style="whiteSpace=wrap;html=1;align=center;fillColor=#dae8fc;strokeColor=#6c8ebf;" parent="1" vertex="1">
          <mxGeometry x="460" y="293" width="100" height="40" as="geometry" />
        </mxCell>
        <mxCell id="hziP3jtluFmY-buEPrSC-44" value="&lt;div&gt;&lt;font style=&quot;font-size: 14px;&quot;&gt;access to/&lt;/font&gt;&lt;/div&gt;&lt;div&gt;&lt;font style=&quot;font-size: 14px;&quot;&gt;accessed by&lt;/font&gt;&lt;/div&gt;" style="shape=rhombus;perimeter=rhombusPerimeter;whiteSpace=wrap;html=1;align=center;" parent="1" vertex="1">
          <mxGeometry x="448.88" y="482.5" width="120" height="60" as="geometry" />
        </mxCell>
        <mxCell id="hziP3jtluFmY-buEPrSC-49" style="rounded=0;orthogonalLoop=1;jettySize=auto;html=1;exitX=1;exitY=0.5;exitDx=0;exitDy=0;entryX=0;entryY=0.5;entryDx=0;entryDy=0;endArrow=none;endFill=0;" parent="1" source="hziP3jtluFmY-buEPrSC-48" target="hziP3jtluFmY-buEPrSC-1" edge="1">
          <mxGeometry relative="1" as="geometry" />
        </mxCell>
        <mxCell id="hziP3jtluFmY-buEPrSC-50" style="edgeStyle=none;rounded=0;orthogonalLoop=1;jettySize=auto;html=1;exitX=0.5;exitY=1;exitDx=0;exitDy=0;entryX=0.5;entryY=0;entryDx=0;entryDy=0;endArrow=none;endFill=0;" parent="1" source="hziP3jtluFmY-buEPrSC-48" target="hziP3jtluFmY-buEPrSC-41" edge="1">
          <mxGeometry relative="1" as="geometry">
            <mxPoint x="510" y="220" as="sourcePoint" />
          </mxGeometry>
        </mxCell>
        <mxCell id="hziP3jtluFmY-buEPrSC-48" value="&lt;font style=&quot;font-size: 14px;&quot;&gt;belongs to&lt;/font&gt;" style="shape=rhombus;perimeter=rhombusPerimeter;whiteSpace=wrap;html=1;align=center;" parent="1" vertex="1">
          <mxGeometry x="465" y="115" width="90" height="50" as="geometry" />
        </mxCell>
        <mxCell id="hziP3jtluFmY-buEPrSC-54" value="&lt;b&gt;&lt;font style=&quot;font-size: 14px;&quot;&gt;Medication&lt;/font&gt;&lt;/b&gt;" style="whiteSpace=wrap;html=1;align=center;fillColor=#dae8fc;strokeColor=#6c8ebf;" parent="1" vertex="1">
          <mxGeometry x="50" y="393" width="100" height="40" as="geometry" />
        </mxCell>
        <mxCell id="hziP3jtluFmY-buEPrSC-62" style="edgeStyle=none;rounded=0;orthogonalLoop=1;jettySize=auto;html=1;exitX=0.5;exitY=1;exitDx=0;exitDy=0;entryX=0.5;entryY=0;entryDx=0;entryDy=0;endArrow=none;endFill=0;" parent="1" source="0w7jtVphP_o-tZDUtHK--23" target="0w7jtVphP_o-tZDUtHK--30" edge="1">
          <mxGeometry relative="1" as="geometry">
            <mxPoint x="283.75" y="338" as="sourcePoint" />
          </mxGeometry>
        </mxCell>
        <mxCell id="hziP3jtluFmY-buEPrSC-67" style="rounded=0;orthogonalLoop=1;jettySize=auto;html=1;endArrow=none;endFill=0;entryX=0.75;entryY=0;entryDx=0;entryDy=0;exitX=0.5;exitY=0;exitDx=0;exitDy=0;" parent="1" source="0w7jtVphP_o-tZDUtHK--33" target="hziP3jtluFmY-buEPrSC-1" edge="1">
          <mxGeometry relative="1" as="geometry">
            <Array as="points">
              <mxPoint x="284" y="50" />
              <mxPoint x="700" y="50" />
            </Array>
            <mxPoint x="610" y="90" as="targetPoint" />
            <mxPoint x="320" y="30" as="sourcePoint" />
          </mxGeometry>
        </mxCell>
        <mxCell id="0w7jtVphP_o-tZDUtHK--28" style="edgeStyle=none;rounded=0;orthogonalLoop=1;jettySize=auto;html=1;entryX=0;entryY=0.5;entryDx=0;entryDy=0;endArrow=none;endFill=0;exitX=1;exitY=0.5;exitDx=0;exitDy=0;" parent="1" source="0w7jtVphP_o-tZDUtHK--34" target="0w7jtVphP_o-tZDUtHK--23" edge="1">
          <mxGeometry relative="1" as="geometry">
            <mxPoint x="183.75" y="335" as="sourcePoint" />
          </mxGeometry>
        </mxCell>
        <mxCell id="hziP3jtluFmY-buEPrSC-64" style="edgeStyle=none;rounded=0;orthogonalLoop=1;jettySize=auto;html=1;exitX=0.5;exitY=1;exitDx=0;exitDy=0;entryX=0.5;entryY=0;entryDx=0;entryDy=0;endArrow=none;endFill=0;" parent="1" source="0w7jtVphP_o-tZDUtHK--34" target="hziP3jtluFmY-buEPrSC-54" edge="1">
          <mxGeometry relative="1" as="geometry">
            <mxPoint x="100" y="348" as="sourcePoint" />
            <mxPoint x="303.75" y="523" as="targetPoint" />
          </mxGeometry>
        </mxCell>
        <mxCell id="hziP3jtluFmY-buEPrSC-65" style="edgeStyle=none;rounded=0;orthogonalLoop=1;jettySize=auto;html=1;exitX=0.5;exitY=1;exitDx=0;exitDy=0;endArrow=none;endFill=0;entryX=0.5;entryY=0;entryDx=0;entryDy=0;" parent="1" source="0w7jtVphP_o-tZDUtHK--23" edge="1">
          <mxGeometry relative="1" as="geometry">
            <mxPoint x="303.75" y="258" as="sourcePoint" />
            <mxPoint x="283.75" y="363" as="targetPoint" />
          </mxGeometry>
        </mxCell>
        <mxCell id="hziP3jtluFmY-buEPrSC-66" style="edgeStyle=none;rounded=0;orthogonalLoop=1;jettySize=auto;html=1;entryX=0.5;entryY=1;entryDx=0;entryDy=0;endArrow=none;endFill=0;exitX=0.25;exitY=1;exitDx=0;exitDy=0;" parent="1" source="hziP3jtluFmY-buEPrSC-11" target="0w7jtVphP_o-tZDUtHK--30" edge="1">
          <mxGeometry relative="1" as="geometry">
            <mxPoint x="340" y="640" as="sourcePoint" />
            <mxPoint x="420" y="480" as="targetPoint" />
            <Array as="points">
              <mxPoint x="531" y="780" />
              <mxPoint x="284" y="780" />
            </Array>
          </mxGeometry>
        </mxCell>
        <mxCell id="hziP3jtluFmY-buEPrSC-68" value="&lt;b&gt;1...N&lt;/b&gt;" style="text;html=1;align=center;verticalAlign=middle;resizable=0;points=[];autosize=1;strokeColor=none;fillColor=none;" parent="1" vertex="1">
          <mxGeometry x="849.88" y="315" width="50" height="30" as="geometry" />
        </mxCell>
        <mxCell id="hziP3jtluFmY-buEPrSC-70" value="&lt;b&gt;1...N&lt;/b&gt;" style="text;html=1;align=center;verticalAlign=middle;resizable=0;points=[];autosize=1;strokeColor=none;fillColor=none;" parent="1" vertex="1">
          <mxGeometry x="715.25" y="435" width="50" height="30" as="geometry" />
        </mxCell>
        <mxCell id="hziP3jtluFmY-buEPrSC-71" value="&lt;b&gt;1...N&lt;/b&gt;" style="text;html=1;align=center;verticalAlign=middle;resizable=0;points=[];autosize=1;strokeColor=none;fillColor=none;" parent="1" vertex="1">
          <mxGeometry x="669.25" y="408" width="50" height="30" as="geometry" />
        </mxCell>
        <mxCell id="hziP3jtluFmY-buEPrSC-72" value="&lt;b&gt;0...N&lt;/b&gt;" style="text;html=1;align=center;verticalAlign=middle;resizable=0;points=[];autosize=1;strokeColor=none;fillColor=none;" parent="1" vertex="1">
          <mxGeometry x="667" y="155" width="50" height="30" as="geometry" />
        </mxCell>
        <mxCell id="hziP3jtluFmY-buEPrSC-73" value="&lt;b&gt;0...N&lt;/b&gt;" style="text;html=1;align=center;verticalAlign=middle;resizable=0;points=[];autosize=1;strokeColor=none;fillColor=none;" parent="1" vertex="1">
          <mxGeometry x="500" y="325" width="50" height="30" as="geometry" />
        </mxCell>
        <mxCell id="hziP3jtluFmY-buEPrSC-74" value="&lt;b&gt;1...N&lt;/b&gt;" style="text;html=1;align=center;verticalAlign=middle;resizable=0;points=[];autosize=1;strokeColor=none;fillColor=none;" parent="1" vertex="1">
          <mxGeometry x="493.88" y="680" width="50" height="30" as="geometry" />
        </mxCell>
        <mxCell id="hziP3jtluFmY-buEPrSC-75" value="&lt;b&gt;1...1&lt;/b&gt;" style="text;html=1;align=center;verticalAlign=middle;resizable=0;points=[];autosize=1;strokeColor=none;fillColor=none;" parent="1" vertex="1">
          <mxGeometry x="486.13" y="780" width="50" height="30" as="geometry" />
        </mxCell>
        <mxCell id="hziP3jtluFmY-buEPrSC-79" value="&lt;b&gt;1...1&lt;/b&gt;" style="text;html=1;align=center;verticalAlign=middle;resizable=0;points=[];autosize=1;strokeColor=none;fillColor=none;" parent="1" vertex="1">
          <mxGeometry x="500" y="270" width="50" height="30" as="geometry" />
        </mxCell>
        <mxCell id="hziP3jtluFmY-buEPrSC-80" value="&lt;b&gt;1...1&lt;/b&gt;" style="text;html=1;align=center;verticalAlign=middle;resizable=0;points=[];autosize=1;strokeColor=none;fillColor=none;" parent="1" vertex="1">
          <mxGeometry x="581" y="135" width="50" height="30" as="geometry" />
        </mxCell>
        <mxCell id="hziP3jtluFmY-buEPrSC-83" value="&lt;b&gt;1...1&lt;/b&gt;" style="text;html=1;align=center;verticalAlign=middle;resizable=0;points=[];autosize=1;strokeColor=none;fillColor=none;" parent="1" vertex="1">
          <mxGeometry x="690.5" y="85" width="50" height="30" as="geometry" />
        </mxCell>
        <mxCell id="hziP3jtluFmY-buEPrSC-84" value="&lt;b&gt;0...N&lt;/b&gt;" style="text;html=1;align=center;verticalAlign=middle;resizable=0;points=[];autosize=1;strokeColor=none;fillColor=none;" parent="1" vertex="1">
          <mxGeometry x="273.75" y="340" width="50" height="30" as="geometry" />
        </mxCell>
        <mxCell id="hziP3jtluFmY-buEPrSC-85" value="&lt;b&gt;0...N&lt;/b&gt;" style="text;html=1;align=center;verticalAlign=middle;resizable=0;points=[];autosize=1;strokeColor=none;fillColor=none;" parent="1" vertex="1">
          <mxGeometry x="273.75" y="273" width="50" height="30" as="geometry" />
        </mxCell>
        <mxCell id="hziP3jtluFmY-buEPrSC-86" value="&lt;b&gt;1...N&lt;/b&gt;" style="text;html=1;align=center;verticalAlign=middle;resizable=0;points=[];autosize=1;strokeColor=none;fillColor=none;" parent="1" vertex="1">
          <mxGeometry x="93.75" y="370" width="50" height="30" as="geometry" />
        </mxCell>
        <mxCell id="hziP3jtluFmY-buEPrSC-90" style="edgeStyle=none;rounded=0;orthogonalLoop=1;jettySize=auto;html=1;exitX=0.5;exitY=1;exitDx=0;exitDy=0;entryX=1;entryY=0.5;entryDx=0;entryDy=0;endArrow=none;endFill=0;" parent="1" source="hziP3jtluFmY-buEPrSC-88" target="hziP3jtluFmY-buEPrSC-1" edge="1">
          <mxGeometry relative="1" as="geometry" />
        </mxCell>
        <mxCell id="hziP3jtluFmY-buEPrSC-88" value="&lt;font style=&quot;font-size: 14px;&quot;&gt;Last Name&lt;/font&gt;" style="ellipse;whiteSpace=wrap;html=1;align=center;" parent="1" vertex="1">
          <mxGeometry x="833.75" y="60" width="88.5" height="40" as="geometry" />
        </mxCell>
        <mxCell id="hziP3jtluFmY-buEPrSC-95" style="edgeStyle=none;rounded=0;orthogonalLoop=1;jettySize=auto;html=1;exitX=0.5;exitY=1;exitDx=0;exitDy=0;entryX=1;entryY=0.5;entryDx=0;entryDy=0;endArrow=none;endFill=0;" parent="1" source="hziP3jtluFmY-buEPrSC-94" target="hziP3jtluFmY-buEPrSC-1" edge="1">
          <mxGeometry relative="1" as="geometry" />
        </mxCell>
        <mxCell id="hziP3jtluFmY-buEPrSC-94" value="&lt;font style=&quot;font-size: 14px;&quot;&gt;&lt;span style=&quot;border-bottom: 1px dotted&quot;&gt;GP&lt;/span&gt;&lt;/font&gt;" style="ellipse;whiteSpace=wrap;html=1;align=center;" parent="1" vertex="1">
          <mxGeometry x="870" y="115" width="65" height="30" as="geometry" />
        </mxCell>
        <mxCell id="hziP3jtluFmY-buEPrSC-102" style="edgeStyle=none;rounded=0;orthogonalLoop=1;jettySize=auto;html=1;exitX=0;exitY=0;exitDx=0;exitDy=0;entryX=1;entryY=0.5;entryDx=0;entryDy=0;endArrow=none;endFill=0;" parent="1" source="hziP3jtluFmY-buEPrSC-100" target="hziP3jtluFmY-buEPrSC-10" edge="1">
          <mxGeometry relative="1" as="geometry" />
        </mxCell>
        <mxCell id="hziP3jtluFmY-buEPrSC-100" value="&lt;font style=&quot;font-size: 14px;&quot;&gt;Hospital Name&lt;/font&gt;" style="ellipse;whiteSpace=wrap;html=1;align=center;" parent="1" vertex="1">
          <mxGeometry x="919.88" y="315" width="77" height="40" as="geometry" />
        </mxCell>
        <mxCell id="hziP3jtluFmY-buEPrSC-103" style="edgeStyle=none;rounded=0;orthogonalLoop=1;jettySize=auto;html=1;exitX=0;exitY=1;exitDx=0;exitDy=0;entryX=1;entryY=0.5;entryDx=0;entryDy=0;endArrow=none;endFill=0;" parent="1" source="hziP3jtluFmY-buEPrSC-101" target="hziP3jtluFmY-buEPrSC-10" edge="1">
          <mxGeometry relative="1" as="geometry">
            <mxPoint x="954.88" y="285" as="targetPoint" />
          </mxGeometry>
        </mxCell>
        <mxCell id="hziP3jtluFmY-buEPrSC-101" value="&lt;font style=&quot;font-size: 14px;&quot;&gt;HOSPITAL_&lt;/font&gt;&lt;font style=&quot;font-size: 14px;&quot;&gt;ID&lt;/font&gt;" style="ellipse;whiteSpace=wrap;html=1;align=center;fontStyle=4;" parent="1" vertex="1">
          <mxGeometry x="919.88" y="255" width="97" height="43" as="geometry" />
        </mxCell>
        <mxCell id="hziP3jtluFmY-buEPrSC-105" value="&lt;pre dir=&quot;ltr&quot; data-ved=&quot;2ahUKEwiju8bF79qCAxW22gIHHb08BLAQ3ewLegQIARAP&quot; style=&quot;text-align:left&quot; id=&quot;tw-target-text&quot; data-placeholder=&quot;Prevod&quot; class=&quot;tw-data-text tw-text-large tw-ta&quot;&gt;&lt;font style=&quot;font-size: 14px;&quot; face=&quot;Helvetica&quot;&gt;date of &lt;br&gt;employment&lt;/font&gt;&lt;/pre&gt;" style="ellipse;whiteSpace=wrap;html=1;align=center;" parent="1" vertex="1">
          <mxGeometry x="821" y="665" width="94" height="40" as="geometry" />
        </mxCell>
        <mxCell id="hziP3jtluFmY-buEPrSC-108" style="edgeStyle=none;rounded=0;orthogonalLoop=1;jettySize=auto;html=1;exitX=0;exitY=0.5;exitDx=0;exitDy=0;entryX=1;entryY=1;entryDx=0;entryDy=0;endArrow=none;endFill=0;" parent="1" source="hziP3jtluFmY-buEPrSC-107" target="hziP3jtluFmY-buEPrSC-12" edge="1">
          <mxGeometry relative="1" as="geometry" />
        </mxCell>
        <mxCell id="hziP3jtluFmY-buEPrSC-107" value="&lt;pre dir=&quot;ltr&quot; data-ved=&quot;2ahUKEwiju8bF79qCAxW22gIHHb08BLAQ3ewLegQIARAP&quot; style=&quot;text-align:left&quot; id=&quot;tw-target-text&quot; data-placeholder=&quot;Prevod&quot; class=&quot;tw-data-text tw-text-large tw-ta&quot;&gt;&lt;font style=&quot;font-size: 14px;&quot; face=&quot;Helvetica&quot;&gt;years of &lt;br&gt;employment&lt;/font&gt;&lt;/pre&gt;" style="ellipse;whiteSpace=wrap;html=1;align=center;dashed=1;" parent="1" vertex="1">
          <mxGeometry x="827" y="740" width="100" height="40" as="geometry" />
        </mxCell>
        <mxCell id="hziP3jtluFmY-buEPrSC-111" style="edgeStyle=none;rounded=0;orthogonalLoop=1;jettySize=auto;html=1;exitX=0.5;exitY=0;exitDx=0;exitDy=0;entryX=1;entryY=1;entryDx=0;entryDy=0;endArrow=none;endFill=0;" parent="1" source="hziP3jtluFmY-buEPrSC-110" target="hziP3jtluFmY-buEPrSC-11" edge="1">
          <mxGeometry relative="1" as="geometry" />
        </mxCell>
        <mxCell id="hziP3jtluFmY-buEPrSC-110" value="&lt;font style=&quot;font-size: 14px;&quot;&gt;certificate number&lt;/font&gt;" style="ellipse;whiteSpace=wrap;html=1;align=center;" parent="1" vertex="1">
          <mxGeometry x="614.38" y="770" width="84.5" height="40" as="geometry" />
        </mxCell>
        <mxCell id="hziP3jtluFmY-buEPrSC-118" value="&lt;b&gt;1...N&lt;/b&gt;" style="text;html=1;align=center;verticalAlign=middle;resizable=0;points=[];autosize=1;strokeColor=none;fillColor=none;" parent="1" vertex="1">
          <mxGeometry x="759.88" y="270" width="50" height="30" as="geometry" />
        </mxCell>
        <mxCell id="hziP3jtluFmY-buEPrSC-121" style="edgeStyle=none;rounded=0;orthogonalLoop=1;jettySize=auto;html=1;exitX=0.5;exitY=0;exitDx=0;exitDy=0;entryX=0.75;entryY=0;entryDx=0;entryDy=0;endArrow=none;endFill=0;" parent="1" source="hziP3jtluFmY-buEPrSC-120" target="hziP3jtluFmY-buEPrSC-41" edge="1">
          <mxGeometry relative="1" as="geometry" />
        </mxCell>
        <mxCell id="hziP3jtluFmY-buEPrSC-120" value="&lt;div&gt;&lt;font style=&quot;font-size: 14px;&quot;&gt;ID&lt;/font&gt;&lt;/div&gt;" style="ellipse;whiteSpace=wrap;html=1;align=center;fontStyle=4;" parent="1" vertex="1">
          <mxGeometry x="528.88" y="200" width="70" height="25" as="geometry" />
        </mxCell>
        <mxCell id="hziP3jtluFmY-buEPrSC-123" style="edgeStyle=none;rounded=0;orthogonalLoop=1;jettySize=auto;html=1;exitX=0.5;exitY=1;exitDx=0;exitDy=0;entryX=0.25;entryY=0;entryDx=0;entryDy=0;endArrow=none;endFill=0;" parent="1" source="hziP3jtluFmY-buEPrSC-122" target="hziP3jtluFmY-buEPrSC-9" edge="1">
          <mxGeometry relative="1" as="geometry" />
        </mxCell>
        <mxCell id="hziP3jtluFmY-buEPrSC-122" value="&lt;font style=&quot;font-size: 14px;&quot;&gt;MS&lt;/font&gt;&lt;font style=&quot;font-size: 14px;&quot;&gt;ID&lt;/font&gt;" style="ellipse;whiteSpace=wrap;html=1;align=center;fontStyle=4;" parent="1" vertex="1">
          <mxGeometry x="581" y="385" width="75.5" height="35" as="geometry" />
        </mxCell>
        <mxCell id="GRBQYt7fKZuuvifM5nAX-4" style="edgeStyle=none;rounded=0;orthogonalLoop=1;jettySize=auto;html=1;exitX=0;exitY=0.5;exitDx=0;exitDy=0;entryX=1;entryY=1;entryDx=0;entryDy=0;endArrow=none;endFill=0;" edge="1" parent="1" source="hziP3jtluFmY-buEPrSC-124" target="hziP3jtluFmY-buEPrSC-9">
          <mxGeometry relative="1" as="geometry" />
        </mxCell>
        <mxCell id="hziP3jtluFmY-buEPrSC-124" value="&lt;font style=&quot;font-size: 14px;&quot;&gt;Last Name&lt;/font&gt;" style="ellipse;whiteSpace=wrap;html=1;align=center;" parent="1" vertex="1">
          <mxGeometry x="813" y="510" width="74" height="35" as="geometry" />
        </mxCell>
        <mxCell id="hziP3jtluFmY-buEPrSC-126" value="&lt;font style=&quot;font-size: 14px;&quot;&gt;First Name&lt;/font&gt;" style="ellipse;whiteSpace=wrap;html=1;align=center;" parent="1" vertex="1">
          <mxGeometry x="721" y="532.5" width="74" height="35" as="geometry" />
        </mxCell>
        <mxCell id="hziP3jtluFmY-buEPrSC-131" style="edgeStyle=none;rounded=0;orthogonalLoop=1;jettySize=auto;html=1;exitX=0.5;exitY=0;exitDx=0;exitDy=0;entryX=0.5;entryY=1;entryDx=0;entryDy=0;endArrow=none;endFill=0;" parent="1" source="hziP3jtluFmY-buEPrSC-143" target="hziP3jtluFmY-buEPrSC-54" edge="1">
          <mxGeometry relative="1" as="geometry">
            <mxPoint x="68.75000000000023" y="553" as="sourcePoint" />
          </mxGeometry>
        </mxCell>
        <mxCell id="hziP3jtluFmY-buEPrSC-143" value="&lt;div&gt;&lt;font style=&quot;font-size: 14px;&quot;&gt;medication_ID&lt;br&gt;&lt;/font&gt;&lt;/div&gt;" style="ellipse;whiteSpace=wrap;html=1;align=center;fontStyle=4;" parent="1" vertex="1">
          <mxGeometry y="495" width="100" height="35" as="geometry" />
        </mxCell>
        <mxCell id="0w7jtVphP_o-tZDUtHK--4" style="edgeStyle=none;rounded=0;orthogonalLoop=1;jettySize=auto;html=1;exitX=0.357;exitY=0.92;exitDx=0;exitDy=0;entryX=0.5;entryY=1;entryDx=0;entryDy=0;endArrow=none;endFill=0;exitPerimeter=0;" parent="1" source="0w7jtVphP_o-tZDUtHK--1" target="hziP3jtluFmY-buEPrSC-54" edge="1">
          <mxGeometry relative="1" as="geometry">
            <mxPoint x="328.75" y="290.5" as="sourcePoint" />
            <mxPoint x="308.75" y="363" as="targetPoint" />
          </mxGeometry>
        </mxCell>
        <mxCell id="0w7jtVphP_o-tZDUtHK--1" value="&lt;font style=&quot;font-size: 14px;&quot;&gt;Price&lt;/font&gt;" style="ellipse;whiteSpace=wrap;html=1;align=center;" parent="1" vertex="1">
          <mxGeometry x="113.75" y="505" width="70" height="25" as="geometry" />
        </mxCell>
        <mxCell id="0w7jtVphP_o-tZDUtHK--14" style="edgeStyle=none;rounded=0;orthogonalLoop=1;jettySize=auto;html=1;exitX=1;exitY=0.5;exitDx=0;exitDy=0;entryX=0;entryY=0.5;entryDx=0;entryDy=0;endArrow=none;endFill=0;" parent="1" source="0w7jtVphP_o-tZDUtHK--5" target="0w7jtVphP_o-tZDUtHK--13" edge="1">
          <mxGeometry relative="1" as="geometry" />
        </mxCell>
        <mxCell id="dfWZmrHWrM5mQdogDjn9-8" style="edgeStyle=orthogonalEdgeStyle;rounded=0;orthogonalLoop=1;jettySize=auto;html=1;exitX=0.5;exitY=1;exitDx=0;exitDy=0;entryX=0.5;entryY=0;entryDx=0;entryDy=0;endArrow=none;endFill=0;" parent="1" source="0w7jtVphP_o-tZDUtHK--5" target="dfWZmrHWrM5mQdogDjn9-7" edge="1">
          <mxGeometry relative="1" as="geometry" />
        </mxCell>
        <mxCell id="0w7jtVphP_o-tZDUtHK--5" value="&lt;b&gt;&lt;font style=&quot;font-size: 14px;&quot;&gt;Professor&lt;/font&gt;&lt;/b&gt;" style="whiteSpace=wrap;html=1;align=center;fillColor=#dae8fc;strokeColor=#6c8ebf;" parent="1" vertex="1">
          <mxGeometry x="514.88" y="890" width="100" height="40" as="geometry" />
        </mxCell>
        <mxCell id="0w7jtVphP_o-tZDUtHK--8" style="edgeStyle=none;rounded=0;orthogonalLoop=1;jettySize=auto;html=1;exitX=0.5;exitY=0;exitDx=0;exitDy=0;endArrow=none;endFill=0;" parent="1" source="0w7jtVphP_o-tZDUtHK--7" edge="1">
          <mxGeometry relative="1" as="geometry">
            <mxPoint x="563.88" y="750" as="targetPoint" />
          </mxGeometry>
        </mxCell>
        <mxCell id="0w7jtVphP_o-tZDUtHK--7" value="&lt;b&gt;&lt;font style=&quot;font-size: 14px;&quot;&gt;d&lt;/font&gt;&lt;/b&gt;" style="ellipse;whiteSpace=wrap;html=1;aspect=fixed;" parent="1" vertex="1">
          <mxGeometry x="543.88" y="795" width="40" height="40" as="geometry" />
        </mxCell>
        <mxCell id="0w7jtVphP_o-tZDUtHK--9" value="" style="shape=dataStorage;whiteSpace=wrap;html=1;fixedSize=1;rotation=-90;direction=east;" parent="1" vertex="1">
          <mxGeometry x="558.88" y="835" width="10" height="40" as="geometry" />
        </mxCell>
        <mxCell id="0w7jtVphP_o-tZDUtHK--12" value="&lt;b&gt;&lt;font style=&quot;font-size: 14px;&quot;&gt;p&lt;/font&gt;&lt;/b&gt;" style="text;html=1;align=center;verticalAlign=middle;resizable=0;points=[];autosize=1;strokeColor=none;fillColor=none;" parent="1" vertex="1">
          <mxGeometry x="553.88" y="758" width="30" height="30" as="geometry" />
        </mxCell>
        <mxCell id="0w7jtVphP_o-tZDUtHK--15" style="edgeStyle=none;rounded=0;orthogonalLoop=1;jettySize=auto;html=1;exitX=0.5;exitY=0;exitDx=0;exitDy=0;entryX=0.5;entryY=1;entryDx=0;entryDy=0;endArrow=none;endFill=0;" parent="1" source="0w7jtVphP_o-tZDUtHK--13" target="hziP3jtluFmY-buEPrSC-12" edge="1">
          <mxGeometry relative="1" as="geometry" />
        </mxCell>
        <mxCell id="0w7jtVphP_o-tZDUtHK--17" style="edgeStyle=none;rounded=0;orthogonalLoop=1;jettySize=auto;html=1;exitX=0;exitY=0.5;exitDx=0;exitDy=0;entryX=1;entryY=0.5;entryDx=0;entryDy=0;endArrow=none;endFill=0;" parent="1" source="dfWZmrHWrM5mQdogDjn9-7" target="0w7jtVphP_o-tZDUtHK--16" edge="1">
          <mxGeometry relative="1" as="geometry" />
        </mxCell>
        <mxCell id="0w7jtVphP_o-tZDUtHK--13" value="&lt;font style=&quot;font-size: 14px;&quot;&gt;guide/guided by&lt;/font&gt;" style="shape=rhombus;perimeter=rhombusPerimeter;whiteSpace=wrap;html=1;align=center;" parent="1" vertex="1">
          <mxGeometry x="709.38" y="876.25" width="112" height="67.5" as="geometry" />
        </mxCell>
        <mxCell id="0w7jtVphP_o-tZDUtHK--16" value="&lt;font style=&quot;font-size: 14px;&quot;&gt;&lt;b&gt;University&lt;/b&gt;&lt;/font&gt;" style="whiteSpace=wrap;html=1;align=center;fillColor=#dae8fc;strokeColor=#6c8ebf;" parent="1" vertex="1">
          <mxGeometry x="299.88" y="967.5" width="100" height="40" as="geometry" />
        </mxCell>
        <mxCell id="dfWZmrHWrM5mQdogDjn9-9" style="rounded=0;orthogonalLoop=1;jettySize=auto;html=1;exitX=0.5;exitY=1;exitDx=0;exitDy=0;entryX=0.5;entryY=0;entryDx=0;entryDy=0;endArrow=none;endFill=0;" parent="1" source="0w7jtVphP_o-tZDUtHK--18" target="0w7jtVphP_o-tZDUtHK--16" edge="1">
          <mxGeometry relative="1" as="geometry" />
        </mxCell>
        <mxCell id="0w7jtVphP_o-tZDUtHK--18" value="&lt;u&gt;Name&lt;/u&gt;" style="ellipse;whiteSpace=wrap;html=1;align=center;" parent="1" vertex="1">
          <mxGeometry x="234.88" y="882.5" width="84" height="35" as="geometry" />
        </mxCell>
        <mxCell id="0w7jtVphP_o-tZDUtHK--20" value="&lt;b&gt;1...N&lt;/b&gt;" style="text;html=1;align=center;verticalAlign=middle;resizable=0;points=[];autosize=1;strokeColor=none;fillColor=none;" parent="1" vertex="1">
          <mxGeometry x="523.88" y="930" width="50" height="30" as="geometry" />
        </mxCell>
        <mxCell id="0w7jtVphP_o-tZDUtHK--21" value="&lt;b&gt;1...1&lt;/b&gt;" style="text;html=1;align=center;verticalAlign=middle;resizable=0;points=[];autosize=1;strokeColor=none;fillColor=none;" parent="1" vertex="1">
          <mxGeometry x="603.88" y="888" width="50" height="30" as="geometry" />
        </mxCell>
        <mxCell id="0w7jtVphP_o-tZDUtHK--26" style="edgeStyle=none;rounded=0;orthogonalLoop=1;jettySize=auto;html=1;exitX=0.5;exitY=0;exitDx=0;exitDy=0;entryX=0.25;entryY=0;entryDx=0;entryDy=0;endArrow=none;endFill=0;" parent="1" source="0w7jtVphP_o-tZDUtHK--25" target="0w7jtVphP_o-tZDUtHK--23" edge="1">
          <mxGeometry relative="1" as="geometry" />
        </mxCell>
        <mxCell id="0w7jtVphP_o-tZDUtHK--25" value="&lt;font style=&quot;font-size: 14px;&quot;&gt;&lt;u&gt;prescription number&lt;/u&gt;&lt;/font&gt;" style="ellipse;whiteSpace=wrap;html=1;align=center;" parent="1" vertex="1">
          <mxGeometry x="160" y="175" width="94.88" height="40" as="geometry" />
        </mxCell>
        <mxCell id="0w7jtVphP_o-tZDUtHK--27" value="" style="edgeStyle=none;rounded=0;orthogonalLoop=1;jettySize=auto;html=1;exitX=0.5;exitY=1;exitDx=0;exitDy=0;endArrow=none;endFill=0;entryX=0.5;entryY=0;entryDx=0;entryDy=0;" parent="1" source="0w7jtVphP_o-tZDUtHK--33" target="0w7jtVphP_o-tZDUtHK--23" edge="1">
          <mxGeometry relative="1" as="geometry">
            <mxPoint x="283.75" y="220" as="sourcePoint" />
            <mxPoint x="283.75" y="363" as="targetPoint" />
          </mxGeometry>
        </mxCell>
        <mxCell id="0w7jtVphP_o-tZDUtHK--23" value="&lt;b&gt;&lt;font style=&quot;font-size: 14px;&quot;&gt;Prescription&lt;/font&gt;&lt;/b&gt;" style="whiteSpace=wrap;html=1;align=center;fillColor=#dae8fc;strokeColor=#6c8ebf;" parent="1" vertex="1">
          <mxGeometry x="233.75" y="303" width="100" height="40" as="geometry" />
        </mxCell>
        <mxCell id="0w7jtVphP_o-tZDUtHK--30" value="&lt;font style=&quot;font-size: 14px;&quot;&gt;prescribe/ prescribed by&lt;/font&gt;" style="shape=rhombus;perimeter=rhombusPerimeter;whiteSpace=wrap;html=1;align=center;" parent="1" vertex="1">
          <mxGeometry x="220.62" y="535" width="126.25" height="75" as="geometry" />
        </mxCell>
        <mxCell id="0w7jtVphP_o-tZDUtHK--33" value="&lt;font style=&quot;font-size: 14px;&quot;&gt;presribed to&lt;/font&gt;" style="shape=rhombus;perimeter=rhombusPerimeter;whiteSpace=wrap;html=1;align=center;" parent="1" vertex="1">
          <mxGeometry x="233.74" y="90" width="100" height="60" as="geometry" />
        </mxCell>
        <mxCell id="0w7jtVphP_o-tZDUtHK--34" value="&lt;font style=&quot;font-size: 14px;&quot;&gt;prescribed&lt;/font&gt;" style="shape=rhombus;perimeter=rhombusPerimeter;whiteSpace=wrap;html=1;align=center;" parent="1" vertex="1">
          <mxGeometry x="55" y="298" width="90" height="50" as="geometry" />
        </mxCell>
        <mxCell id="0w7jtVphP_o-tZDUtHK--36" style="edgeStyle=none;rounded=0;orthogonalLoop=1;jettySize=auto;html=1;exitX=0;exitY=1;exitDx=0;exitDy=0;entryX=1;entryY=0.5;entryDx=0;entryDy=0;endArrow=none;endFill=0;" parent="1" source="0w7jtVphP_o-tZDUtHK--35" target="hziP3jtluFmY-buEPrSC-1" edge="1">
          <mxGeometry relative="1" as="geometry" />
        </mxCell>
        <mxCell id="0w7jtVphP_o-tZDUtHK--35" value="&lt;font style=&quot;font-size: 14px;&quot;&gt;medication average price&lt;/font&gt;" style="ellipse;whiteSpace=wrap;html=1;align=center;dashed=1;" parent="1" vertex="1">
          <mxGeometry x="791.5" y="150" width="98.5" height="50" as="geometry" />
        </mxCell>
        <mxCell id="0w7jtVphP_o-tZDUtHK--43" style="edgeStyle=orthogonalEdgeStyle;rounded=0;orthogonalLoop=1;jettySize=auto;html=1;exitX=0.5;exitY=1;exitDx=0;exitDy=0;entryX=0;entryY=0.75;entryDx=0;entryDy=0;endArrow=none;endFill=0;" parent="1" source="0w7jtVphP_o-tZDUtHK--41" target="hziP3jtluFmY-buEPrSC-11" edge="1">
          <mxGeometry relative="1" as="geometry" />
        </mxCell>
        <mxCell id="0w7jtVphP_o-tZDUtHK--44" style="edgeStyle=orthogonalEdgeStyle;rounded=0;orthogonalLoop=1;jettySize=auto;html=1;exitX=0.5;exitY=0;exitDx=0;exitDy=0;entryX=0.25;entryY=0;entryDx=0;entryDy=0;endArrow=none;endFill=0;" parent="1" source="0w7jtVphP_o-tZDUtHK--41" target="hziP3jtluFmY-buEPrSC-1" edge="1">
          <mxGeometry relative="1" as="geometry" />
        </mxCell>
        <mxCell id="0w7jtVphP_o-tZDUtHK--41" value="&lt;font style=&quot;font-size: 14px;&quot;&gt;assigned to&lt;/font&gt;" style="shape=rhombus;perimeter=rhombusPerimeter;whiteSpace=wrap;html=1;align=center;" parent="1" vertex="1">
          <mxGeometry x="366.13" y="335" width="90" height="50" as="geometry" />
        </mxCell>
        <mxCell id="0w7jtVphP_o-tZDUtHK--45" value="&lt;b&gt;0...N&lt;/b&gt;" style="text;html=1;align=center;verticalAlign=middle;resizable=0;points=[];autosize=1;strokeColor=none;fillColor=none;" parent="1" vertex="1">
          <mxGeometry x="617" y="75" width="50" height="30" as="geometry" />
        </mxCell>
        <mxCell id="0w7jtVphP_o-tZDUtHK--47" value="&lt;b&gt;1...1&lt;/b&gt;" style="text;html=1;align=center;verticalAlign=middle;resizable=0;points=[];autosize=1;strokeColor=none;fillColor=none;" parent="1" vertex="1">
          <mxGeometry x="456.13" y="715" width="50" height="30" as="geometry" />
        </mxCell>
        <mxCell id="dfWZmrHWrM5mQdogDjn9-2" style="rounded=0;orthogonalLoop=1;jettySize=auto;html=1;exitX=0.5;exitY=1;exitDx=0;exitDy=0;entryX=0.25;entryY=0;entryDx=0;entryDy=0;endArrow=none;endFill=0;" parent="1" source="dfWZmrHWrM5mQdogDjn9-1" target="hziP3jtluFmY-buEPrSC-41" edge="1">
          <mxGeometry relative="1" as="geometry" />
        </mxCell>
        <mxCell id="dfWZmrHWrM5mQdogDjn9-1" value="&lt;div&gt;&lt;font style=&quot;font-size: 14px;&quot;&gt;&lt;span style=&quot;border-bottom: 1px dotted&quot;&gt;P_ID&lt;br&gt;&lt;/span&gt;&lt;/font&gt;&lt;/div&gt;" style="ellipse;whiteSpace=wrap;html=1;align=center;" parent="1" vertex="1">
          <mxGeometry x="420.13" y="230" width="86" height="30" as="geometry" />
        </mxCell>
        <mxCell id="dfWZmrHWrM5mQdogDjn9-5" style="rounded=0;orthogonalLoop=1;jettySize=auto;html=1;exitX=0.5;exitY=1;exitDx=0;exitDy=0;entryX=0.25;entryY=0;entryDx=0;entryDy=0;endArrow=none;endFill=0;" parent="1" source="dfWZmrHWrM5mQdogDjn9-4" target="0w7jtVphP_o-tZDUtHK--23" edge="1">
          <mxGeometry relative="1" as="geometry">
            <mxPoint x="343" y="305" as="targetPoint" />
          </mxGeometry>
        </mxCell>
        <mxCell id="dfWZmrHWrM5mQdogDjn9-4" value="&lt;font style=&quot;font-size: 14px;&quot;&gt;&lt;span style=&quot;border-bottom: 1px dotted&quot;&gt;Price&lt;/span&gt;&lt;/font&gt;" style="ellipse;whiteSpace=wrap;html=1;align=center;" parent="1" vertex="1">
          <mxGeometry x="117.5" y="225" width="86" height="30" as="geometry" />
        </mxCell>
        <mxCell id="dfWZmrHWrM5mQdogDjn9-7" value="&lt;font style=&quot;font-size: 14px;&quot;&gt;tied to&lt;/font&gt;" style="shape=rhombus;perimeter=rhombusPerimeter;whiteSpace=wrap;html=1;align=center;" parent="1" vertex="1">
          <mxGeometry x="515.13" y="960" width="98.5" height="55" as="geometry" />
        </mxCell>
        <mxCell id="dfWZmrHWrM5mQdogDjn9-10" value="&lt;b&gt;1...1&lt;/b&gt;" style="text;html=1;align=center;verticalAlign=middle;resizable=0;points=[];autosize=1;strokeColor=none;fillColor=none;" parent="1" vertex="1">
          <mxGeometry x="392.38" y="960" width="50" height="30" as="geometry" />
        </mxCell>
        <mxCell id="dfWZmrHWrM5mQdogDjn9-12" value="&lt;b&gt;0...N&lt;/b&gt;" style="text;html=1;align=center;verticalAlign=middle;resizable=0;points=[];autosize=1;strokeColor=none;fillColor=none;" parent="1" vertex="1">
          <mxGeometry x="759.88" y="750" width="50" height="30" as="geometry" />
        </mxCell>
        <mxCell id="dfWZmrHWrM5mQdogDjn9-13" value="&lt;b&gt;0...N&lt;/b&gt;" style="text;html=1;align=center;verticalAlign=middle;resizable=0;points=[];autosize=1;strokeColor=none;fillColor=none;" parent="1" vertex="1">
          <mxGeometry x="183.75" y="325" width="50" height="30" as="geometry" />
        </mxCell>
        <mxCell id="dfWZmrHWrM5mQdogDjn9-15" style="rounded=0;orthogonalLoop=1;jettySize=auto;html=1;exitX=0.5;exitY=1;exitDx=0;exitDy=0;entryX=0.75;entryY=0;entryDx=0;entryDy=0;endArrow=none;endFill=0;" parent="1" source="dfWZmrHWrM5mQdogDjn9-14" target="0w7jtVphP_o-tZDUtHK--23" edge="1">
          <mxGeometry relative="1" as="geometry" />
        </mxCell>
        <mxCell id="dfWZmrHWrM5mQdogDjn9-14" value="&lt;font style=&quot;font-size: 14px;&quot;&gt;DateTime&lt;/font&gt;" style="ellipse;whiteSpace=wrap;html=1;align=center;" parent="1" vertex="1">
          <mxGeometry x="290" y="220" width="86" height="30" as="geometry" />
        </mxCell>
        <mxCell id="GRBQYt7fKZuuvifM5nAX-2" style="edgeStyle=none;rounded=0;orthogonalLoop=1;jettySize=auto;html=1;exitX=0.5;exitY=1;exitDx=0;exitDy=0;entryX=0;entryY=0;entryDx=0;entryDy=0;endArrow=none;endFill=0;" edge="1" parent="1" source="hziP3jtluFmY-buEPrSC-44" target="hziP3jtluFmY-buEPrSC-11">
          <mxGeometry relative="1" as="geometry" />
        </mxCell>
        <mxCell id="GRBQYt7fKZuuvifM5nAX-6" style="edgeStyle=none;rounded=0;orthogonalLoop=1;jettySize=auto;html=1;exitX=0.5;exitY=1;exitDx=0;exitDy=0;entryX=1;entryY=0.5;entryDx=0;entryDy=0;endArrow=none;endFill=0;" edge="1" parent="1" source="GRBQYt7fKZuuvifM5nAX-5" target="hziP3jtluFmY-buEPrSC-41">
          <mxGeometry relative="1" as="geometry" />
        </mxCell>
        <mxCell id="GRBQYt7fKZuuvifM5nAX-5" value="&lt;font style=&quot;font-size: 14px;&quot;&gt;DateTime&lt;/font&gt;" style="ellipse;whiteSpace=wrap;html=1;align=center;" vertex="1" parent="1">
          <mxGeometry x="557.88" y="235" width="86" height="30" as="geometry" />
        </mxCell>
        <mxCell id="GRBQYt7fKZuuvifM5nAX-8" style="edgeStyle=none;rounded=0;orthogonalLoop=1;jettySize=auto;html=1;exitX=0.5;exitY=0;exitDx=0;exitDy=0;entryX=1;entryY=0.5;entryDx=0;entryDy=0;endArrow=none;endFill=0;" edge="1" parent="1" source="GRBQYt7fKZuuvifM5nAX-7" target="hziP3jtluFmY-buEPrSC-41">
          <mxGeometry relative="1" as="geometry" />
        </mxCell>
        <mxCell id="GRBQYt7fKZuuvifM5nAX-7" value="&lt;font style=&quot;font-size: 14px;&quot;&gt;comment&lt;/font&gt;" style="ellipse;whiteSpace=wrap;html=1;align=center;" vertex="1" parent="1">
          <mxGeometry x="553.88" y="340" width="86" height="30" as="geometry" />
        </mxCell>
      </root>
    </mxGraphModel>
  </diagram>
</mxfile>
